# Blender v2.79 (sub 0) OBJ File: ''
# www.blender.org
mtllib SpecialRing.mtl
o Object01
v 0.000000 0.000005 -32.000000
v 0.000000 5.706305 -27.854099
v 10.659300 5.706304 -25.733801
v 12.245900 0.000005 -29.564100
v 0.000000 3.526703 -21.145901
v 8.092200 3.526703 -19.536301
v 0.000000 -3.526697 -21.145901
v 8.092200 -3.526697 -19.536301
v 0.000000 -5.706295 -27.854099
v 10.659300 -5.706295 -25.733801
v 19.695801 5.706303 -19.695801
v 22.627399 0.000004 -22.627399
v 14.952400 3.526702 -14.952399
v 14.952400 -3.526698 -14.952401
v 19.695801 -5.706296 -19.695801
v 25.733801 5.706302 -10.659299
v 29.564100 0.000002 -12.245900
v 19.536301 3.526701 -8.092199
v 19.536301 -3.526699 -8.092201
v 25.733801 -5.706298 -10.659301
v 27.854099 5.706300 0.000001
v 32.000000 0.000000 0.000000
v 21.145901 3.526700 0.000001
v 21.145901 -3.526700 -0.000001
v 27.854099 -5.706300 -0.000001
v 25.733801 5.706298 10.659301
v 29.564100 -0.000002 12.245900
v 19.536301 3.526699 8.092201
v 19.536301 -3.526701 8.092199
v 25.733801 -5.706302 10.659299
v 19.695801 5.706296 19.695801
v 22.627399 -0.000004 22.627399
v 14.952400 3.526698 14.952401
v 14.952400 -3.526702 14.952399
v 19.695801 -5.706303 19.695801
v 10.659300 5.706295 25.733801
v 12.245900 -0.000005 29.564100
v 8.092200 3.526697 19.536301
v 8.092200 -3.526703 19.536301
v 10.659300 -5.706304 25.733801
v 0.000000 5.706295 27.854099
v 0.000000 -0.000005 32.000000
v 0.000000 3.526697 21.145901
v 0.000000 -3.526703 21.145901
v 0.000000 -5.706305 27.854099
v -10.659300 5.706295 25.733801
v -12.245900 -0.000005 29.564100
v -8.092200 3.526697 19.536301
v -8.092200 -3.526703 19.536301
v -10.659300 -5.706304 25.733801
v -19.695801 5.706296 19.695801
v -22.627399 -0.000004 22.627399
v -14.952400 3.526698 14.952401
v -14.952400 -3.526702 14.952399
v -19.695801 -5.706303 19.695801
v -25.733801 5.706298 10.659301
v -29.564100 -0.000002 12.245900
v -19.536301 3.526699 8.092201
v -19.536301 -3.526701 8.092199
v -25.733801 -5.706302 10.659299
v -27.854099 5.706300 0.000001
v -32.000000 0.000000 0.000000
v -21.145901 3.526700 0.000001
v -21.145901 -3.526700 -0.000001
v -27.854099 -5.706300 -0.000001
v -25.733801 5.706302 -10.659299
v -29.564100 0.000002 -12.245900
v -19.536301 3.526701 -8.092199
v -19.536301 -3.526699 -8.092201
v -25.733801 -5.706298 -10.659301
v -19.695801 5.706303 -19.695801
v -22.627399 0.000004 -22.627399
v -14.952400 3.526702 -14.952399
v -14.952400 -3.526698 -14.952401
v -19.695801 -5.706296 -19.695801
v -10.659300 5.706304 -25.733801
v -12.245900 0.000005 -29.564100
v -8.092200 3.526703 -19.536301
v -8.092200 -3.526697 -19.536301
v -10.659300 -5.706295 -25.733801
vn 0.0000 0.0000 -1.0000
vn 0.0000 0.9281 -0.3723
vn 0.1425 0.9281 -0.3439
vn 0.3827 0.0000 -0.9239
vn 0.0000 0.6252 0.7804
vn -0.2987 0.6252 0.7211
vn 0.0000 -0.6252 0.7804
vn -0.2987 -0.6252 0.7211
vn 0.0000 -0.9281 -0.3723
vn 0.1425 -0.9281 -0.3439
vn 0.2633 0.9281 -0.2633
vn 0.7071 0.0000 -0.7071
vn -0.5519 0.6252 0.5519
vn -0.5519 -0.6252 0.5519
vn 0.2633 -0.9281 -0.2633
vn 0.3439 0.9281 -0.1425
vn 0.9239 0.0000 -0.3827
vn -0.7211 0.6252 0.2987
vn -0.7211 -0.6252 0.2987
vn 0.3439 -0.9281 -0.1425
vn 0.3723 0.9281 0.0000
vn 1.0000 0.0000 0.0000
vn -0.7804 0.6252 0.0000
vn -0.7804 -0.6252 0.0000
vn 0.3723 -0.9281 0.0000
vn 0.3439 0.9281 0.1425
vn 0.9239 0.0000 0.3827
vn -0.7211 0.6252 -0.2987
vn -0.7211 -0.6252 -0.2987
vn 0.3439 -0.9281 0.1425
vn 0.2633 0.9281 0.2633
vn 0.7071 0.0000 0.7071
vn -0.5519 0.6252 -0.5519
vn -0.5519 -0.6252 -0.5519
vn 0.2633 -0.9281 0.2633
vn 0.1425 0.9281 0.3439
vn 0.3827 0.0000 0.9239
vn -0.2987 0.6252 -0.7211
vn -0.2987 -0.6252 -0.7211
vn 0.1425 -0.9281 0.3439
vn 0.0000 0.9281 0.3723
vn 0.0000 0.0000 1.0000
vn 0.0000 0.6252 -0.7804
vn 0.0000 -0.6252 -0.7804
vn 0.0000 -0.9281 0.3723
vn -0.1425 0.9281 0.3439
vn -0.3827 0.0000 0.9239
vn 0.2987 0.6252 -0.7211
vn 0.2987 -0.6252 -0.7211
vn -0.1425 -0.9281 0.3439
vn -0.2633 0.9281 0.2633
vn -0.7071 0.0000 0.7071
vn 0.5519 0.6252 -0.5519
vn 0.5519 -0.6252 -0.5519
vn -0.2633 -0.9281 0.2633
vn -0.3439 0.9281 0.1425
vn -0.9239 0.0000 0.3827
vn 0.7211 0.6252 -0.2987
vn 0.7211 -0.6252 -0.2987
vn -0.3439 -0.9281 0.1425
vn -0.3723 0.9281 0.0000
vn -1.0000 0.0000 0.0000
vn 0.7804 0.6252 0.0000
vn 0.7804 -0.6252 0.0000
vn -0.3723 -0.9281 0.0000
vn -0.3439 0.9281 -0.1425
vn -0.9239 0.0000 -0.3827
vn 0.7211 0.6252 0.2987
vn 0.7211 -0.6252 0.2987
vn -0.3439 -0.9281 -0.1425
vn -0.2633 0.9281 -0.2633
vn -0.7071 0.0000 -0.7071
vn 0.5519 0.6252 0.5519
vn 0.5519 -0.6252 0.5519
vn -0.2633 -0.9281 -0.2633
vn -0.1425 0.9281 -0.3439
vn -0.3827 0.0000 -0.9239
vn 0.2987 0.6252 0.7211
vn 0.2987 -0.6252 0.7211
vn -0.1425 -0.9281 -0.3439
usemtl wire_228184153
s 1
f 1//1 2//2 3//3
f 1//1 3//3 4//4
f 2//2 5//5 6//6
f 2//2 6//6 3//3
f 5//5 7//7 8//8
f 5//5 8//8 6//6
f 7//7 9//9 10//10
f 7//7 10//10 8//8
f 9//9 1//1 4//4
f 9//9 4//4 10//10
f 4//4 3//3 11//11
f 4//4 11//11 12//12
f 3//3 6//6 13//13
f 3//3 13//13 11//11
f 6//6 8//8 14//14
f 6//6 14//14 13//13
f 8//8 10//10 15//15
f 8//8 15//15 14//14
f 10//10 4//4 12//12
f 10//10 12//12 15//15
f 12//12 11//11 16//16
f 12//12 16//16 17//17
f 11//11 13//13 18//18
f 11//11 18//18 16//16
f 13//13 14//14 19//19
f 13//13 19//19 18//18
f 14//14 15//15 20//20
f 14//14 20//20 19//19
f 15//15 12//12 17//17
f 15//15 17//17 20//20
f 17//17 16//16 21//21
f 17//17 21//21 22//22
f 16//16 18//18 23//23
f 16//16 23//23 21//21
f 18//18 19//19 24//24
f 18//18 24//24 23//23
f 19//19 20//20 25//25
f 19//19 25//25 24//24
f 20//20 17//17 22//22
f 20//20 22//22 25//25
f 22//22 21//21 26//26
f 22//22 26//26 27//27
f 21//21 23//23 28//28
f 21//21 28//28 26//26
f 23//23 24//24 29//29
f 23//23 29//29 28//28
f 24//24 25//25 30//30
f 24//24 30//30 29//29
f 25//25 22//22 27//27
f 25//25 27//27 30//30
f 27//27 26//26 31//31
f 27//27 31//31 32//32
f 26//26 28//28 33//33
f 26//26 33//33 31//31
f 28//28 29//29 34//34
f 28//28 34//34 33//33
f 29//29 30//30 35//35
f 29//29 35//35 34//34
f 30//30 27//27 32//32
f 30//30 32//32 35//35
f 32//32 31//31 36//36
f 32//32 36//36 37//37
f 31//31 33//33 38//38
f 31//31 38//38 36//36
f 33//33 34//34 39//39
f 33//33 39//39 38//38
f 34//34 35//35 40//40
f 34//34 40//40 39//39
f 35//35 32//32 37//37
f 35//35 37//37 40//40
f 37//37 36//36 41//41
f 37//37 41//41 42//42
f 36//36 38//38 43//43
f 36//36 43//43 41//41
f 38//38 39//39 44//44
f 38//38 44//44 43//43
f 39//39 40//40 45//45
f 39//39 45//45 44//44
f 40//40 37//37 42//42
f 40//40 42//42 45//45
f 42//42 41//41 46//46
f 42//42 46//46 47//47
f 41//41 43//43 48//48
f 41//41 48//48 46//46
f 43//43 44//44 49//49
f 43//43 49//49 48//48
f 44//44 45//45 50//50
f 44//44 50//50 49//49
f 45//45 42//42 47//47
f 45//45 47//47 50//50
f 47//47 46//46 51//51
f 47//47 51//51 52//52
f 46//46 48//48 53//53
f 46//46 53//53 51//51
f 48//48 49//49 54//54
f 48//48 54//54 53//53
f 49//49 50//50 55//55
f 49//49 55//55 54//54
f 50//50 47//47 52//52
f 50//50 52//52 55//55
f 52//52 51//51 56//56
f 52//52 56//56 57//57
f 51//51 53//53 58//58
f 51//51 58//58 56//56
f 53//53 54//54 59//59
f 53//53 59//59 58//58
f 54//54 55//55 60//60
f 54//54 60//60 59//59
f 55//55 52//52 57//57
f 55//55 57//57 60//60
f 57//57 56//56 61//61
f 57//57 61//61 62//62
f 56//56 58//58 63//63
f 56//56 63//63 61//61
f 58//58 59//59 64//64
f 58//58 64//64 63//63
f 59//59 60//60 65//65
f 59//59 65//65 64//64
f 60//60 57//57 62//62
f 60//60 62//62 65//65
f 62//62 61//61 66//66
f 62//62 66//66 67//67
f 61//61 63//63 68//68
f 61//61 68//68 66//66
f 63//63 64//64 69//69
f 63//63 69//69 68//68
f 64//64 65//65 70//70
f 64//64 70//70 69//69
f 65//65 62//62 67//67
f 65//65 67//67 70//70
f 67//67 66//66 71//71
f 67//67 71//71 72//72
f 66//66 68//68 73//73
f 66//66 73//73 71//71
f 68//68 69//69 74//74
f 68//68 74//74 73//73
f 69//69 70//70 75//75
f 69//69 75//75 74//74
f 70//70 67//67 72//72
f 70//70 72//72 75//75
f 72//72 71//71 76//76
f 72//72 76//76 77//77
f 71//71 73//73 78//78
f 71//71 78//78 76//76
f 73//73 74//74 79//79
f 73//73 79//79 78//78
f 74//74 75//75 80//80
f 74//74 80//80 79//79
f 75//75 72//72 77//77
f 75//75 77//77 80//80
f 77//77 76//76 2//2
f 77//77 2//2 1//1
f 76//76 78//78 5//5
f 76//76 5//5 2//2
f 78//78 79//79 7//7
f 78//78 7//7 5//5
f 79//79 80//80 9//9
f 79//79 9//9 7//7
f 80//80 77//77 1//1
f 80//80 1//1 9//9
